<?xml version="1.0" standalone="no"?>
<!DOCTYPE svg PUBLIC "-//W3C//DTD SVG 20010904//EN"
 "http://www.w3.org/TR/2001/REC-SVG-20010904/DTD/svg10.dtd">
<svg version="1.0" xmlns="http://www.w3.org/2000/svg"
 width="152.000000pt" height="152.000000pt" viewBox="0 0 152.000000 152.000000"
 preserveAspectRatio="xMidYMid meet">
<metadata>
Created by potrace 1.11, written by Peter Selinger 2001-2013
</metadata>
<g transform="translate(0.000000,152.000000) scale(0.100000,-0.100000)"
fill="#000000" stroke="none">
<path d="M135 1211 c2 -11 -1 -24 -7 -27 -7 -4 -8 -2 -4 4 5 9 -21 32 -37 32
-2 0 -7 -21 -9 -47 -3 -27 -15 -68 -26 -93 -36 -77 -54 -190 -35 -216 7 -10
11 -24 9 -31 -3 -7 -1 -15 3 -18 5 -3 7 -14 4 -24 -3 -10 0 -22 6 -25 6 -4 11
-17 11 -29 1 -14 15 -32 40 -49 24 -17 40 -36 40 -48 0 -11 3 -21 8 -21 4 -1
19 -3 34 -4 14 -2 51 -20 81 -40 55 -37 138 -57 151 -36 4 5 14 7 24 4 23 -8
72 -54 72 -68 0 -7 8 -19 18 -29 17 -15 22 -15 47 -2 36 19 45 12 80 -57 32
-61 33 -63 62 -71 19 -6 22 -3 21 24 -1 29 25 70 44 70 6 0 21 9 35 20 25 19
94 26 118 11 9 -5 65 -9 65 -4 0 1 -8 10 -17 19 -16 16 -16 17 -1 12 9 -4 18
-3 20 2 4 14 96 21 104 9 4 -6 20 -8 38 -5 37 7 59 -11 70 -55 7 -33 61 -92
78 -87 27 9 15 54 -38 148 -26 47 -18 75 46 151 33 39 60 74 61 78 5 41 4 54
-6 57 -6 3 -12 10 -13 17 0 7 -4 23 -7 37 -7 23 -6 23 14 -5 l21 -30 0 26 c0
14 -6 31 -12 38 -11 11 -10 12 1 6 16 -9 31 11 31 42 0 12 8 24 18 26 14 4 14
5 -3 6 -14 1 -7 7 21 20 37 17 69 44 47 40 -42 -7 -33 42 16 88 31 29 34 35
21 46 -8 7 -21 25 -28 40 -10 24 -15 26 -32 17 -13 -7 -20 -21 -20 -41 0 -36
-17 -56 -56 -65 -43 -10 -74 -32 -74 -54 0 -22 -14 -32 -44 -34 -12 -1 -20 -7
-19 -16 3 -22 -73 -73 -97 -65 -16 5 -17 10 -8 30 13 29 4 57 -15 49 -11 -4
-13 1 -10 20 4 20 0 28 -18 34 -20 8 -26 4 -41 -24 -12 -23 -15 -40 -9 -61 11
-38 -4 -70 -25 -52 -16 13 -19 72 -4 100 8 14 7 19 -2 19 -8 0 -7 6 4 17 10 9
31 16 48 16 16 0 30 4 30 8 0 11 -39 18 -76 12 -27 -5 -34 -2 -34 11 0 16 -2
16 -22 2 -12 -9 -34 -16 -48 -16 l-25 1 30 26 c16 14 23 24 15 21 -8 -3 -31 0
-50 7 -19 7 -41 10 -47 8 -7 -3 -13 0 -13 5 0 6 -34 11 -82 11 -146 1 -371 27
-453 51 -16 5 -41 11 -55 14 -14 3 -39 8 -57 11 -29 7 -32 5 -28 -14z"/>
<path d="M119 517 c-9 -7 -14 -22 -12 -36 3 -20 1 -22 -12 -11 -12 10 -15 10
-15 0 0 -7 8 -19 18 -26 15 -12 15 -13 1 -14 -34 0 -40 -25 -14 -56 23 -27 24
-30 8 -41 -9 -7 -13 -13 -9 -13 12 0 50 22 58 33 19 30 108 9 139 -34 20 -28
49 -39 49 -19 0 6 -4 10 -8 10 -5 0 -14 11 -22 24 -7 14 -18 23 -24 20 -24 -8
-35 14 -39 79 -2 37 -5 68 -8 70 -8 6 -76 27 -85 27 -5 0 -16 -6 -25 -13z"/>
<path d="M510 317 c0 -19 10 -27 25 -20 17 6 8 33 -11 33 -8 0 -14 -6 -14 -13z"/>
</g>
</svg>
